<svg width="642" height="642" viewBox="0 0 642 642" fill="none" xmlns="http://www.w3.org/2000/svg">
<rect width="642" height="642" fill="url(#paint0_linear_6_43)"/>
<g filter="url(#filter0_d_6_43)">
<path d="M323.392 496L296.43 351.015L213 325.07L296.43 299.634L322.884 146L348.828 299.634L429.715 325.07L348.828 351.015L323.392 496Z" fill="url(#paint1_linear_6_43)"/>
<path d="M515 495.029C471.298 537.635 411.255 563.936 344.992 563.936C341.952 563.936 338.926 563.879 335.913 563.77L345.382 510.935C366.048 517.283 388.115 520.717 411.036 520.717C448.831 520.717 484.306 511.379 515 495.029ZM295.528 155.747C242.308 188.493 205.761 243.212 200.463 306.202L154.5 323.837L200.844 341.973C207.366 403.659 243.902 457.038 296.522 489.021L310.291 561.495C193.082 544.874 103 445.31 103 324.968C103 205.654 191.548 106.764 307.29 88.8838L295.528 155.747ZM344.992 86C404.472 86 458.94 107.191 501.076 142.345C473.762 130.225 443.241 123.445 411.036 123.445C388.178 123.445 366.167 126.859 345.55 133.175L337.432 86.1152C339.942 86.0391 342.463 86 344.992 86Z" fill="url(#paint2_linear_6_43)"/>
</g>
<defs>
<filter id="filter0_d_6_43" x="59.8" y="42.8" width="498.4" height="564.336" filterUnits="userSpaceOnUse" color-interpolation-filters="sRGB">
<feFlood flood-opacity="0" result="BackgroundImageFix"/>
<feColorMatrix in="SourceAlpha" type="matrix" values="0 0 0 0 0 0 0 0 0 0 0 0 0 0 0 0 0 0 127 0" result="hardAlpha"/>
<feOffset/>
<feGaussianBlur stdDeviation="21.6"/>
<feComposite in2="hardAlpha" operator="out"/>
<feColorMatrix type="matrix" values="0 0 0 0 0 0 0 0 0 0 0 0 0 0 0 0 0 0 1 0"/>
<feBlend mode="normal" in2="BackgroundImageFix" result="effect1_dropShadow_6_43"/>
<feBlend mode="normal" in="SourceGraphic" in2="effect1_dropShadow_6_43" result="shape"/>
</filter>
<linearGradient id="paint0_linear_6_43" x1="321" y1="34" x2="321" y2="986.5" gradientUnits="userSpaceOnUse">
<stop stop-color="#0D0D0D"/>
<stop offset="1" stop-color="#2B2B2B"/>
</linearGradient>
<linearGradient id="paint1_linear_6_43" x1="321.358" y1="-154.982" x2="318.898" y2="701.994" gradientUnits="userSpaceOnUse">
<stop stop-color="white"/>
<stop offset="1" stop-color="#222222"/>
</linearGradient>
<linearGradient id="paint2_linear_6_43" x1="309" y1="-325" x2="305.5" y2="636.5" gradientUnits="userSpaceOnUse">
<stop stop-color="white"/>
<stop offset="1" stop-color="#272727"/>
</linearGradient>
</defs>
</svg>
