<svg width="2082" height="478" viewBox="0 0 2082 478" fill="none" xmlns="http://www.w3.org/2000/svg">
<path d="M220.392 410L193.43 265.015L110 239.07L193.43 213.634L219.884 60L245.828 213.634L326.715 239.07L245.828 265.015L220.392 410Z" fill="white"/>
<path d="M412 409.029C368.298 451.635 308.255 477.936 241.992 477.936C238.952 477.936 235.926 477.879 232.913 477.77L242.382 424.935C263.048 431.283 285.115 434.717 308.036 434.717C345.831 434.717 381.306 425.379 412 409.029ZM192.528 69.7471C139.308 102.493 102.761 157.212 97.4629 220.202L51.5 237.837L97.8438 255.973C104.366 317.659 140.902 371.038 193.522 403.021L207.291 475.495C90.0822 458.874 7.61672e-06 359.31 0 238.968C0 119.654 88.5481 20.7643 204.29 2.88379L192.528 69.7471ZM241.992 0C301.472 0 355.94 21.1911 398.076 56.3447C370.762 44.2247 340.241 37.4453 308.036 37.4453C285.178 37.4453 263.167 40.8592 242.55 47.1748L234.432 0.115234C236.942 0.0391392 239.463 4.77911e-06 241.992 0Z" fill="white"/>
<path d="M497.827 258.043C497.827 263.514 499.021 268.377 501.405 272.632C503.837 276.887 507.25 280.231 511.646 282.662C516.041 285.094 521.162 286.31 527.007 286.31C532.899 286.31 538.019 285.094 542.368 282.662C546.764 280.231 550.153 276.887 552.538 272.632C554.97 268.377 556.185 263.514 556.186 258.043V167.349H586.558V260.638C586.558 271.112 584.056 280.278 579.053 288.134C574.096 295.99 567.151 302.115 558.22 306.511C549.288 310.859 538.884 313.034 527.007 313.034C515.083 313.034 504.655 310.859 495.724 306.511C486.792 302.115 479.847 295.99 474.891 288.134C469.934 280.278 467.456 271.112 467.456 260.638V167.349H497.827V258.043ZM1616.03 165.385C1626.69 165.385 1635.99 167.208 1643.94 170.855C1651.94 174.503 1658.16 179.576 1662.6 186.076C1667.04 192.576 1669.33 200.105 1669.47 208.662H1640.37C1639.81 203.004 1637.4 198.609 1633.14 195.476C1628.89 192.343 1623.11 190.776 1615.82 190.776C1610.86 190.776 1606.67 191.478 1603.26 192.881C1599.85 194.237 1597.23 196.13 1595.41 198.562C1593.63 200.993 1592.74 203.753 1592.74 206.839C1592.65 209.411 1593.18 211.655 1594.35 213.572C1595.57 215.489 1597.23 217.15 1599.33 218.553C1601.44 219.909 1603.87 221.101 1606.63 222.13C1609.39 223.112 1612.33 223.954 1615.47 224.655L1628.37 227.741C1634.64 229.144 1640.39 231.015 1645.63 233.353C1650.86 235.691 1655.4 238.567 1659.23 241.98C1663.07 245.394 1666.04 249.416 1668.14 254.045C1670.29 258.674 1671.39 263.982 1671.44 269.967C1671.39 278.758 1669.15 286.38 1664.71 292.833C1660.31 299.239 1653.95 304.22 1645.63 307.773C1637.35 311.281 1627.37 313.034 1615.68 313.034C1604.08 313.034 1593.98 311.257 1585.37 307.703C1576.82 304.149 1570.13 298.888 1565.31 291.921C1560.54 284.907 1558.04 276.233 1557.81 265.898H1587.2C1587.53 270.715 1588.91 274.736 1591.34 277.963C1593.82 281.143 1597.11 283.551 1601.23 285.188C1605.39 286.777 1610.09 287.572 1615.33 287.572C1620.47 287.572 1624.93 286.824 1628.72 285.328C1632.56 283.832 1635.53 281.75 1637.63 279.085C1639.73 276.42 1640.79 273.357 1640.79 269.896C1640.79 266.67 1639.83 263.958 1637.91 261.76C1636.04 259.562 1633.28 257.692 1629.63 256.148C1626.03 254.605 1621.61 253.203 1616.38 251.94L1600.74 248.013C1588.62 245.067 1579.06 240.46 1572.05 234.194C1565.03 227.928 1561.55 219.488 1561.6 208.873C1561.55 200.175 1563.86 192.576 1568.54 186.076C1573.26 179.576 1579.74 174.503 1587.97 170.855C1596.2 167.208 1605.55 165.385 1616.03 165.385ZM1311.62 165.385C1324.3 165.385 1335.71 168.284 1345.85 174.082C1356.05 179.834 1364.09 188.204 1369.98 199.193C1375.92 210.182 1378.89 223.509 1378.89 239.174C1378.89 254.839 1375.92 268.166 1369.98 279.155C1364.09 290.144 1356.05 298.538 1345.85 304.337C1335.71 310.089 1324.3 312.964 1311.62 312.964C1298.86 312.964 1287.4 310.065 1277.25 304.267C1267.11 298.468 1259.09 290.074 1253.2 279.085C1247.3 268.096 1244.36 254.792 1244.36 239.174C1244.36 223.509 1247.3 210.182 1253.2 199.193C1259.09 188.204 1267.11 179.834 1277.25 174.082C1287.4 168.284 1298.86 165.385 1311.62 165.385ZM1008.42 279.296C1012.9 279.296 1016.83 280.933 1020.2 284.206C1023.57 287.479 1025.25 291.407 1025.25 295.989C1025.25 299.075 1024.45 301.905 1022.86 304.477C1021.32 307.002 1019.29 309.036 1016.76 310.579C1014.24 312.075 1011.45 312.823 1008.42 312.823C1003.79 312.823 999.811 311.187 996.491 307.914C993.218 304.594 991.581 300.619 991.581 295.989C991.581 291.407 993.218 287.479 996.491 284.206C999.811 280.933 1003.79 279.296 1008.42 279.296ZM377.857 285.959H439.441V311H347.485V255.056L377.857 244.976V285.959ZM708.106 257.691H709.369V167.349H739.601V311H713.367L650.87 220.587H649.818V311H619.446V167.349H646.101L708.106 257.691ZM903.06 311H870.513L859.877 278.243H808.011L797.354 311H764.809L814.399 167.349H853.539L903.06 311ZM958.622 311H928.25V167.349H958.622V311ZM1135.26 263.864H1136.94L1176.5 167.349H1213.96V311H1184.5V217.5H1183.31L1146.13 310.299H1126.07L1088.9 217.149H1087.7V311H1058.24V167.349H1095.7L1135.26 263.864ZM1497.95 257.691H1499.21V167.349H1529.44V311H1503.21L1440.71 220.587H1439.66V311H1409.29V167.349H1435.94L1497.95 257.691ZM1812.28 192.39H1768.3V311H1738.28V192.39H1694.3V167.349H1812.28V192.39ZM1936.4 192.39H1869.98V226.619H1931.42V251.659H1869.98V285.959H1936.68V311H1839.61V167.349H1936.4V192.39ZM2025.13 167.349C2035.97 167.349 2045.23 169.29 2052.9 173.171C2060.62 177.005 2066.49 182.453 2070.51 189.514C2074.58 196.528 2076.61 204.781 2076.61 214.273C2076.61 223.813 2074.55 232.02 2070.44 238.894C2066.32 245.721 2060.36 250.958 2052.55 254.605C2052.12 254.807 2051.69 255.001 2051.25 255.191L2081.73 311H2048.2L2020.99 260.077H1998.82V311H1968.45V167.349H2025.13ZM1311.62 192.249C1304.28 192.249 1297.88 194.05 1292.41 197.65C1286.93 201.251 1282.68 206.535 1279.64 213.502C1276.65 220.469 1275.15 229.027 1275.15 239.174C1275.15 249.321 1276.65 257.879 1279.64 264.847C1282.68 271.814 1286.93 277.098 1292.41 280.698C1297.88 284.299 1304.28 286.1 1311.62 286.1C1318.97 286.1 1325.37 284.299 1330.84 280.698C1336.31 277.098 1340.55 271.814 1343.54 264.847C1346.58 257.879 1348.1 249.321 1348.1 239.174C1348.1 229.027 1346.58 220.469 1343.54 213.502C1340.55 206.535 1336.31 201.251 1330.84 197.65C1325.37 194.05 1318.97 192.249 1311.62 192.249ZM815.724 254.535H852.18L834.53 200.175H833.408L815.724 254.535ZM1998.82 235.667H2019.44C2025.24 235.667 2030.06 234.872 2033.89 233.282C2037.73 231.692 2040.58 229.308 2042.45 226.128C2044.37 222.948 2045.33 218.996 2045.33 214.273C2045.33 209.504 2044.37 205.482 2042.45 202.209C2040.58 198.936 2037.7 196.458 2033.82 194.774C2029.99 193.044 2025.15 192.179 2019.3 192.179H1998.82V235.667ZM377.857 230.89L347.485 221.007V167.349H377.857V230.89Z" fill="white"/>
</svg>
